<svg width="48" height="48" viewBox="0 0 48 48" fill="none" xmlns="http://www.w3.org/2000/svg">
<path d="M23.75 44L32.8 20H36.9L46.2 44H41.85L39.8 37.7H30.2L27.85 44H23.75ZM31.3 34.2H38.4L34.9 24.5H34.8L31.3 34.2ZM8 38L5.25 35.25L15.45 25.05C14.1833 23.5833 13.0583 22.1083 12.075 20.625C11.0917 19.1417 10.2333 17.6 9.5 16H13.85C14.4167 17.1 15.0417 18.1417 15.725 19.125C16.4083 20.1083 17.1833 21.1167 18.05 22.15C19.55 20.5833 20.8 18.9583 21.8 17.275C22.8 15.5917 23.65 13.8333 24.35 12H2V8H16V4H20V8H34V12H28.35C27.6167 14.3 26.6417 16.5583 25.425 18.775C24.2083 20.9917 22.7167 23.1 20.95 25.1L25.85 30.05L24.35 34.1L18 28L8 38Z" fill="url(#paint0_linear_3_15)"/>
<defs>
<linearGradient id="paint0_linear_3_15" x1="24.1" y1="4" x2="24.1" y2="44" gradientUnits="userSpaceOnUse">
<stop stop-color="#1C5DDA"/>
<stop offset="1" stop-color="#3CC6E4"/>
</linearGradient>
</defs>
</svg>
