<svg width="375" height="38" viewBox="0 0 375 38" fill="none" xmlns="http://www.w3.org/2000/svg">
<path d="M22.808 29.368C22.808 29.304 22.872 29.272 23 29.272C23.096 29.272 23.176 29.304 23.24 29.368C23.336 29.4 23.384 29.432 23.384 29.464C23.064 31.96 22.904 34.232 22.904 36.28C22.904 36.536 22.856 36.728 22.76 36.856C22.664 36.952 22.472 37 22.184 37H0.967975C0.871975 37 0.823975 36.904 0.823975 36.712C0.823975 36.52 0.871975 36.424 0.967975 36.424C1.99197 36.424 2.72797 36.344 3.17597 36.184C3.65597 36.024 3.97597 35.72 4.13597 35.272C4.29597 34.792 4.37597 34.072 4.37597 33.112V10.888C4.37597 9.92801 4.29597 9.22401 4.13597 8.77601C3.97597 8.32801 3.65597 8.02401 3.17597 7.86401C2.69597 7.67201 1.95997 7.57601 0.967975 7.57601C0.871975 7.57601 0.823975 7.48001 0.823975 7.28801C0.823975 7.09601 0.871975 7.00001 0.967975 7.00001H21.32C21.64 7.00001 21.8 7.14401 21.8 7.43201L21.896 13.816C21.896 13.88 21.8 13.928 21.608 13.96C21.448 13.992 21.352 13.96 21.32 13.864C20.808 12.008 19.944 10.632 18.728 9.73601C17.512 8.84001 15.912 8.39201 13.928 8.39201H12.488C11.528 8.39201 10.824 8.60001 10.376 9.01601C9.92798 9.43201 9.70397 10.072 9.70397 10.936V20.728H13.688C15.544 20.728 16.968 20.408 17.96 19.768C18.952 19.128 19.448 18.232 19.448 17.08C19.448 16.984 19.528 16.936 19.688 16.936C19.88 16.936 19.976 16.984 19.976 17.08L19.928 21.4L19.976 23.704C20.04 24.792 20.072 25.656 20.072 26.296C20.072 26.36 19.976 26.392 19.784 26.392C19.592 26.392 19.496 26.36 19.496 26.296C19.496 24.984 18.984 23.96 17.96 23.224C16.968 22.456 15.528 22.072 13.64 22.072H9.70397V32.92C9.70397 33.848 9.87998 34.536 10.232 34.984C10.584 35.432 11.144 35.656 11.912 35.656H13.496C15.992 35.656 17.992 35.144 19.496 34.12C21 33.096 22.104 31.512 22.808 29.368Z" fill="#404040"/>
<path d="M61.9164 36.424C62.0443 36.424 62.1083 36.52 62.1083 36.712C62.1083 36.904 62.0443 37 61.9164 37C61.0844 37 60.4284 36.984 59.9484 36.952L57.0684 36.904L54.2844 36.952C53.7724 36.984 53.1004 37 52.2684 37C52.1724 37 52.1244 36.904 52.1244 36.712C52.1244 36.52 52.1724 36.424 52.2684 36.424C53.2604 36.424 53.9324 36.2 54.2844 35.752C54.6684 35.272 54.8604 34.392 54.8604 33.112V26.2C54.8604 24.472 54.5564 23.192 53.9484 22.36C53.3724 21.528 52.4764 21.112 51.2603 21.112C50.4284 21.112 49.6124 21.288 48.8124 21.64C48.0124 21.992 47.3244 22.472 46.7484 23.08V33.112C46.7484 34.392 46.9244 35.272 47.2764 35.752C47.6604 36.2 48.3484 36.424 49.3404 36.424C49.4684 36.424 49.5324 36.52 49.5324 36.712C49.5324 36.904 49.4684 37 49.3404 37C48.5084 37 47.8524 36.984 47.3724 36.952L44.4924 36.904L41.7084 36.952C41.1964 36.984 40.5243 37 39.6923 37C39.5963 37 39.5484 36.904 39.5484 36.712C39.5484 36.52 39.5963 36.424 39.6923 36.424C40.6843 36.424 41.3564 36.2 41.7084 35.752C42.0924 35.272 42.2844 34.392 42.2844 33.112V26.2C42.2844 24.472 41.9804 23.192 41.3724 22.36C40.7964 21.528 39.9003 21.112 38.6843 21.112C37.9163 21.112 37.1483 21.272 36.3803 21.592C35.6443 21.88 34.9883 22.296 34.4123 22.84V33.112C34.4123 34.392 34.5883 35.272 34.9403 35.752C35.3243 36.2 36.0123 36.424 37.0043 36.424C37.1003 36.424 37.1483 36.52 37.1483 36.712C37.1483 36.904 37.1003 37 37.0043 37C36.1723 37 35.5164 36.984 35.0364 36.952L32.1563 36.904L29.3244 36.952C28.8444 36.984 28.1884 37 27.3563 37C27.2603 37 27.2123 36.904 27.2123 36.712C27.2123 36.52 27.2603 36.424 27.3563 36.424C28.3483 36.424 29.0203 36.2 29.3723 35.752C29.7243 35.272 29.9004 34.392 29.9004 33.112V24.088C29.9004 23.096 29.7723 22.376 29.5163 21.928C29.2923 21.448 28.9243 21.208 28.4123 21.208C27.8683 21.208 27.1003 21.432 26.1083 21.88H26.0124C25.9164 21.88 25.8364 21.8 25.7724 21.64C25.7404 21.48 25.7563 21.384 25.8203 21.352L32.4923 18.088C32.6843 18.024 32.7964 17.992 32.8284 17.992C33.1803 17.992 33.5163 18.344 33.8363 19.048C34.1563 19.72 34.3484 20.632 34.4123 21.784C36.5883 19.192 38.9243 17.896 41.4203 17.896C42.9243 17.896 44.1244 18.264 45.0204 19C45.9164 19.736 46.4604 20.792 46.6524 22.168C48.8604 19.32 51.3084 17.896 53.9964 17.896C55.7244 17.896 57.0364 18.392 57.9324 19.384C58.8604 20.376 59.3244 21.88 59.3244 23.896V33.112C59.3244 34.392 59.5004 35.272 59.8524 35.752C60.2364 36.2 60.9244 36.424 61.9164 36.424Z" fill="#404040"/>
<path d="M99.2289 36.424C99.3568 36.424 99.4209 36.52 99.4209 36.712C99.4209 36.904 99.3568 37 99.2289 37C98.3969 37 97.7408 36.984 97.2608 36.952L94.3809 36.904L91.5968 36.952C91.0848 36.984 90.4128 37 89.5808 37C89.4848 37 89.4369 36.904 89.4369 36.712C89.4369 36.52 89.4848 36.424 89.5808 36.424C90.5728 36.424 91.2448 36.2 91.5968 35.752C91.9808 35.272 92.1729 34.392 92.1729 33.112V26.2C92.1729 24.472 91.8688 23.192 91.2608 22.36C90.6848 21.528 89.7889 21.112 88.5729 21.112C87.7409 21.112 86.9248 21.288 86.1248 21.64C85.3248 21.992 84.6369 22.472 84.0609 23.08V33.112C84.0609 34.392 84.2369 35.272 84.5889 35.752C84.9729 36.2 85.6608 36.424 86.6528 36.424C86.7808 36.424 86.8448 36.52 86.8448 36.712C86.8448 36.904 86.7808 37 86.6528 37C85.8208 37 85.1649 36.984 84.6849 36.952L81.8048 36.904L79.0209 36.952C78.5089 36.984 77.8369 37 77.0049 37C76.9089 37 76.8608 36.904 76.8608 36.712C76.8608 36.52 76.9089 36.424 77.0049 36.424C77.9969 36.424 78.6689 36.2 79.0209 35.752C79.4049 35.272 79.5968 34.392 79.5968 33.112V26.2C79.5968 24.472 79.2929 23.192 78.6849 22.36C78.1089 21.528 77.2128 21.112 75.9968 21.112C75.2288 21.112 74.4608 21.272 73.6928 21.592C72.9568 21.88 72.3009 22.296 71.7249 22.84V33.112C71.7249 34.392 71.9009 35.272 72.2529 35.752C72.6369 36.2 73.3248 36.424 74.3168 36.424C74.4128 36.424 74.4609 36.52 74.4609 36.712C74.4609 36.904 74.4128 37 74.3168 37C73.4848 37 72.8288 36.984 72.3488 36.952L69.4688 36.904L66.6368 36.952C66.1568 36.984 65.5009 37 64.6688 37C64.5728 37 64.5248 36.904 64.5248 36.712C64.5248 36.52 64.5728 36.424 64.6688 36.424C65.6608 36.424 66.3329 36.2 66.6849 35.752C67.0369 35.272 67.2129 34.392 67.2129 33.112V24.088C67.2129 23.096 67.0848 22.376 66.8288 21.928C66.6048 21.448 66.2369 21.208 65.7249 21.208C65.1809 21.208 64.4128 21.432 63.4208 21.88H63.3248C63.2288 21.88 63.1489 21.8 63.0849 21.64C63.0529 21.48 63.0689 21.384 63.1329 21.352L69.8048 18.088C69.9968 18.024 70.1089 17.992 70.1409 17.992C70.4929 17.992 70.8288 18.344 71.1488 19.048C71.4688 19.72 71.6609 20.632 71.7249 21.784C73.9009 19.192 76.2368 17.896 78.7328 17.896C80.2368 17.896 81.4368 18.264 82.3328 19C83.2288 19.736 83.7729 20.792 83.9649 22.168C86.1729 19.32 88.6209 17.896 91.3089 17.896C93.0369 17.896 94.3488 18.392 95.2449 19.384C96.1728 20.376 96.6368 21.88 96.6368 23.896V33.112C96.6368 34.392 96.8128 35.272 97.1648 35.752C97.5488 36.2 98.2369 36.424 99.2289 36.424Z" fill="#404040"/>
<path d="M123.389 33.88C123.485 33.88 123.565 33.96 123.629 34.12C123.725 34.28 123.725 34.376 123.629 34.408L117.005 37.624C116.941 37.656 116.861 37.672 116.765 37.672C116.477 37.672 116.205 37.384 115.949 36.808C115.725 36.232 115.581 35.448 115.517 34.456C114.461 35.448 113.405 36.232 112.349 36.808C111.293 37.352 110.125 37.624 108.845 37.624C107.533 37.624 106.317 37.304 105.197 36.664C104.109 35.992 103.245 35.016 102.605 33.736C101.965 32.456 101.645 30.92 101.645 29.128C101.645 26.856 102.173 24.872 103.229 23.176C104.285 21.448 105.677 20.136 107.405 19.24C109.133 18.344 110.989 17.896 112.973 17.896C114.701 17.896 116.253 18.312 117.629 19.144C118.365 18.824 118.989 18.408 119.501 17.896C119.533 17.864 119.581 17.848 119.645 17.848C119.709 17.848 119.773 17.88 119.837 17.944C119.933 17.976 119.981 18.024 119.981 18.088V31.768C119.981 32.728 120.077 33.416 120.269 33.832C120.493 34.216 120.845 34.408 121.325 34.408C121.741 34.408 122.397 34.232 123.293 33.88H123.389ZM111.293 35.08C112.573 35.08 113.965 34.568 115.469 33.544V23.176C115.469 21.928 115.117 20.904 114.413 20.104C113.741 19.304 112.845 18.904 111.725 18.904C110.125 18.904 108.861 19.704 107.933 21.304C107.037 22.904 106.589 24.968 106.589 27.496C106.589 29.896 106.989 31.768 107.789 33.112C108.621 34.424 109.789 35.08 111.293 35.08Z" fill="#404040"/>
<path d="M148.073 36.424C148.169 36.424 148.217 36.52 148.217 36.712C148.217 36.904 148.169 37 148.073 37C147.241 37 146.585 36.984 146.105 36.952L143.225 36.904L140.441 36.952C139.929 36.984 139.257 37 138.425 37C138.329 37 138.281 36.904 138.281 36.712C138.281 36.52 138.329 36.424 138.425 36.424C139.417 36.424 140.089 36.2 140.441 35.752C140.793 35.272 140.969 34.392 140.969 33.112V26.2C140.969 24.472 140.649 23.192 140.009 22.36C139.401 21.528 138.425 21.112 137.081 21.112C136.313 21.112 135.513 21.272 134.681 21.592C133.881 21.912 133.177 22.344 132.569 22.888V33.112C132.569 34.392 132.745 35.272 133.097 35.752C133.481 36.2 134.169 36.424 135.161 36.424C135.257 36.424 135.305 36.52 135.305 36.712C135.305 36.904 135.257 37 135.161 37C134.329 37 133.673 36.984 133.193 36.952L130.313 36.904L127.481 36.952C127.001 36.984 126.345 37 125.513 37C125.417 37 125.369 36.904 125.369 36.712C125.369 36.52 125.417 36.424 125.513 36.424C126.505 36.424 127.177 36.2 127.529 35.752C127.881 35.272 128.057 34.392 128.057 33.112V24.088C128.057 23.096 127.929 22.376 127.673 21.928C127.449 21.448 127.081 21.208 126.569 21.208C126.025 21.208 125.257 21.432 124.265 21.88H124.169C124.073 21.88 123.993 21.8 123.929 21.64C123.897 21.48 123.913 21.384 123.977 21.352L130.649 18.088C130.841 18.024 130.953 17.992 130.985 17.992C131.337 17.992 131.673 18.344 131.993 19.048C132.313 19.72 132.505 20.648 132.569 21.832C134.777 19.208 137.209 17.896 139.865 17.896C141.593 17.896 142.953 18.456 143.945 19.576C144.969 20.664 145.481 22.104 145.481 23.896V33.112C145.481 34.392 145.657 35.272 146.009 35.752C146.393 36.2 147.081 36.424 148.073 36.424Z" fill="#404040"/>
<path d="M172.858 33.88C172.954 33.88 173.034 33.96 173.098 34.12C173.194 34.28 173.194 34.376 173.098 34.408L166.474 37.624C166.41 37.656 166.33 37.672 166.234 37.672C165.914 37.672 165.626 37.336 165.37 36.664C165.146 35.96 165.018 35.016 164.986 33.832C162.874 36.328 160.586 37.576 158.122 37.576C156.362 37.576 154.97 37.032 153.946 35.944C152.954 34.824 152.458 33.368 152.458 31.576V24.52C152.458 22.44 151.962 21.4 150.97 21.4C150.618 21.4 150.218 21.512 149.77 21.736H149.722C149.594 21.736 149.498 21.656 149.434 21.496C149.37 21.304 149.386 21.192 149.482 21.16L155.914 18.088L156.154 18.04C156.314 18.04 156.474 18.12 156.634 18.28C156.826 18.408 156.922 18.536 156.922 18.664V29.272C156.922 32.728 158.25 34.456 160.906 34.456C161.61 34.456 162.314 34.312 163.018 34.024C163.754 33.704 164.41 33.272 164.986 32.728V24.52C164.986 22.44 164.49 21.4 163.498 21.4C163.146 21.4 162.73 21.512 162.25 21.736H162.202C162.106 21.736 162.026 21.656 161.962 21.496C161.898 21.304 161.914 21.192 162.01 21.16L168.442 18.088C168.506 18.056 168.586 18.04 168.682 18.04C168.842 18.04 169.002 18.12 169.162 18.28C169.354 18.408 169.45 18.536 169.45 18.664V31.432C169.45 32.52 169.546 33.288 169.738 33.736C169.962 34.184 170.314 34.408 170.794 34.408C171.242 34.408 171.898 34.232 172.762 33.88H172.858Z" fill="#404040"/>
<path d="M191.765 33.832C191.829 33.832 191.893 33.896 191.957 34.024C192.053 34.152 192.069 34.248 192.005 34.312C190.821 35.464 189.621 36.296 188.405 36.808C187.189 37.32 185.861 37.576 184.421 37.576C182.405 37.576 180.661 37.16 179.189 36.328C177.717 35.464 176.597 34.328 175.829 32.92C175.061 31.48 174.677 29.944 174.677 28.312C174.677 26.456 175.157 24.744 176.117 23.176C177.077 21.576 178.389 20.328 180.053 19.432C181.717 18.504 183.573 18.04 185.621 18.04C187.605 18.04 189.125 18.472 190.181 19.336C191.237 20.168 191.765 21.32 191.765 22.792C191.765 23.72 191.589 24.184 191.237 24.184H188.309L179.669 24.28C179.573 24.888 179.525 25.56 179.525 26.296C179.525 29.048 180.165 31.224 181.445 32.824C182.757 34.424 184.549 35.224 186.821 35.224C187.621 35.224 188.453 35.112 189.317 34.888C190.181 34.664 190.965 34.328 191.669 33.88L191.765 33.832ZM183.845 19C182.885 19 182.053 19.384 181.349 20.152C180.645 20.92 180.133 21.976 179.813 23.32L186.629 23.176C186.533 20.392 185.605 19 183.845 19Z" fill="#404040"/>
<path d="M194.883 37C194.819 37 194.787 36.904 194.787 36.712C194.787 36.52 194.819 36.424 194.883 36.424C195.875 36.424 196.547 36.2 196.899 35.752C197.283 35.272 197.475 34.392 197.475 33.112L197.523 8.72801C197.523 7.60801 197.411 6.80801 197.187 6.32801C196.995 5.84801 196.643 5.60801 196.131 5.60801C195.715 5.60801 195.107 5.78401 194.307 6.13601H194.259C194.163 6.13601 194.067 6.05601 193.971 5.89601C193.907 5.70401 193.907 0.532 193.971 0.5L201.027 2.24801L201.219 2.20001C201.379 2.20001 201.555 2.28001 201.747 2.44001C201.939 2.56801 202.035 2.69601 202.035 2.82401V33.112C202.035 34.392 202.211 35.272 202.563 35.752C202.915 36.2 203.587 36.424 204.579 36.424C204.707 36.424 204.771 36.52 204.771 36.712C204.771 36.904 204.707 37 204.579 37C203.779 37 203.139 36.984 202.659 36.952L199.731 36.904L196.851 36.952C196.371 36.984 195.715 37 194.883 37Z" fill="#404040"/>
<path d="M234.865 37.576C231.889 37.576 229.233 36.888 226.897 35.512C224.593 34.104 222.801 32.216 221.521 29.848C220.273 27.448 219.649 24.84 219.649 22.024C219.649 18.728 220.481 15.912 222.145 13.576C223.809 11.208 225.937 9.43201 228.529 8.24801C231.153 7.06401 233.825 6.47201 236.545 6.47201C239.585 6.47201 242.257 7.19201 244.561 8.63201C246.865 10.04 248.625 11.912 249.841 14.248C251.089 16.584 251.713 19.064 251.713 21.688C251.713 24.6 250.945 27.272 249.409 29.704C247.873 32.136 245.809 34.056 243.217 35.464C240.657 36.872 237.873 37.576 234.865 37.576ZM236.449 36.376C238.241 36.376 239.841 35.864 241.249 34.84C242.689 33.784 243.809 32.264 244.609 30.28C245.409 28.264 245.809 25.864 245.809 23.08C245.809 20.136 245.361 17.512 244.465 15.208C243.569 12.872 242.273 11.048 240.577 9.73601C238.881 8.42401 236.897 7.76801 234.625 7.76801C231.713 7.76801 229.473 8.87201 227.905 11.08C226.337 13.256 225.553 16.312 225.553 20.248C225.553 23.352 226.017 26.136 226.945 28.6C227.905 31.032 229.201 32.936 230.833 34.312C232.497 35.688 234.369 36.376 236.449 36.376Z" fill="#404040"/>
<path d="M255.727 37C255.663 37 255.631 36.904 255.631 36.712C255.631 36.52 255.663 36.424 255.727 36.424C256.719 36.424 257.391 36.2 257.743 35.752C258.127 35.272 258.319 34.392 258.319 33.112L258.367 8.72801C258.367 7.60801 258.255 6.80801 258.031 6.32801C257.839 5.84801 257.487 5.60801 256.975 5.60801C256.559 5.60801 255.951 5.78401 255.151 6.13601H255.103C255.007 6.13601 254.911 6.05601 254.815 5.89601C254.751 5.70401 255.663 0.532 255.727 0.5L261.871 2.24801L262.063 2.20001C262.223 2.20001 262.399 2.28001 262.591 2.44001C262.783 2.56801 262.879 2.69601 262.879 2.82401V33.112C262.879 34.392 263.055 35.272 263.407 35.752C263.759 36.2 264.431 36.424 265.423 36.424C265.551 36.424 265.615 36.52 265.615 36.712C265.615 36.904 265.551 37 265.423 37C264.623 37 263.983 36.984 263.503 36.952L260.575 36.904L257.695 36.952C257.215 36.984 256.559 37 255.727 37Z" fill="#404040"/>
<path d="M273.371 13.24C272.443 13.24 271.723 12.984 271.211 12.472C270.699 11.96 270.443 11.24 270.443 10.312C270.443 9.48001 270.699 8.82401 271.211 8.34401C271.755 7.83201 272.475 7.57601 273.371 7.57601C274.267 7.57601 274.955 7.81601 275.435 8.29601C275.915 8.77601 276.155 9.44801 276.155 10.312C276.155 11.24 275.915 11.96 275.435 12.472C274.955 12.984 274.267 13.24 273.371 13.24ZM268.763 37C268.667 37 268.619 36.904 268.619 36.712C268.619 36.52 268.667 36.424 268.763 36.424C269.755 36.424 270.427 36.2 270.779 35.752C271.131 35.272 271.307 34.392 271.307 33.112V24.52C271.307 23.432 271.195 22.648 270.971 22.168C270.747 21.688 270.379 21.448 269.867 21.448C269.451 21.448 268.859 21.624 268.091 21.976H268.043C267.915 21.976 267.819 21.896 267.755 21.736C267.691 21.544 267.707 21.432 267.803 21.4L275.051 18.04L275.195 17.992C275.355 17.992 275.515 18.072 275.675 18.232C275.835 18.392 275.915 18.536 275.915 18.664V19.72C275.851 21 275.819 22.568 275.819 24.424V33.112C275.819 34.392 275.995 35.272 276.347 35.752C276.731 36.2 277.419 36.424 278.411 36.424C278.507 36.424 278.555 36.52 278.555 36.712C278.555 36.904 278.507 37 278.411 37C277.579 37 276.923 36.984 276.443 36.952L273.563 36.904L270.731 36.952C270.251 36.984 269.595 37 268.763 37Z" fill="#404040"/>
<path d="M301.292 18.472C301.356 18.472 301.388 18.568 301.388 18.76C301.388 18.952 301.356 19.048 301.292 19.048C300.364 19.048 299.532 19.4 298.796 20.104C298.092 20.808 297.42 21.896 296.78 23.368L290.876 37C290.844 37.16 290.668 37.24 290.348 37.24C290.092 37.24 289.916 37.16 289.82 37L282.476 22.456C281.804 21.048 281.212 20.136 280.7 19.72C280.188 19.272 279.564 19.048 278.828 19.048C278.732 19.048 278.684 18.952 278.684 18.76C278.684 18.568 278.732 18.472 278.828 18.472C279.404 18.472 279.884 18.488 280.268 18.52L283.484 18.568L287.18 18.52C287.724 18.488 288.476 18.472 289.436 18.472C289.532 18.472 289.58 18.568 289.58 18.76C289.58 18.952 289.532 19.048 289.436 19.048C287.58 19.048 286.652 19.416 286.652 20.152C286.652 20.344 286.732 20.6 286.892 20.92L292.268 31L295.436 23.32C295.692 22.648 295.82 22.072 295.82 21.592C295.82 20.792 295.548 20.168 295.004 19.72C294.46 19.272 293.708 19.048 292.748 19.048C292.684 19.048 292.652 18.952 292.652 18.76C292.652 18.568 292.684 18.472 292.748 18.472C293.612 18.472 294.268 18.488 294.716 18.52L297.596 18.568L299.516 18.52C299.9 18.488 300.492 18.472 301.292 18.472Z" fill="#404040"/>
<path d="M319.265 33.832C319.329 33.832 319.393 33.896 319.457 34.024C319.553 34.152 319.569 34.248 319.505 34.312C318.321 35.464 317.121 36.296 315.905 36.808C314.689 37.32 313.361 37.576 311.921 37.576C309.905 37.576 308.161 37.16 306.689 36.328C305.217 35.464 304.097 34.328 303.329 32.92C302.561 31.48 302.177 29.944 302.177 28.312C302.177 26.456 302.657 24.744 303.617 23.176C304.577 21.576 305.889 20.328 307.553 19.432C309.217 18.504 311.073 18.04 313.121 18.04C315.105 18.04 316.625 18.472 317.681 19.336C318.737 20.168 319.265 21.32 319.265 22.792C319.265 23.72 319.089 24.184 318.737 24.184H315.809L307.169 24.28C307.073 24.888 307.025 25.56 307.025 26.296C307.025 29.048 307.665 31.224 308.945 32.824C310.257 34.424 312.049 35.224 314.321 35.224C315.121 35.224 315.953 35.112 316.817 34.888C317.681 34.664 318.465 34.328 319.169 33.88L319.265 33.832ZM311.345 19C310.385 19 309.553 19.384 308.849 20.152C308.145 20.92 307.633 21.976 307.313 23.32L314.129 23.176C314.033 20.392 313.105 19 311.345 19Z" fill="#404040"/>
<path d="M327.183 13.24C326.255 13.24 325.535 12.984 325.023 12.472C324.511 11.96 324.255 11.24 324.255 10.312C324.255 9.48001 324.511 8.82401 325.023 8.34401C325.567 7.83201 326.287 7.57601 327.183 7.57601C328.079 7.57601 328.767 7.81601 329.247 8.29601C329.727 8.77601 329.967 9.44801 329.967 10.312C329.967 11.24 329.727 11.96 329.247 12.472C328.767 12.984 328.079 13.24 327.183 13.24ZM322.575 37C322.479 37 322.431 36.904 322.431 36.712C322.431 36.52 322.479 36.424 322.575 36.424C323.567 36.424 324.239 36.2 324.591 35.752C324.943 35.272 325.119 34.392 325.119 33.112V24.52C325.119 23.432 325.007 22.648 324.783 22.168C324.559 21.688 324.191 21.448 323.679 21.448C323.263 21.448 322.671 21.624 321.903 21.976H321.855C321.727 21.976 321.631 21.896 321.567 21.736C321.503 21.544 321.519 21.432 321.615 21.4L328.863 18.04L329.007 17.992C329.167 17.992 329.327 18.072 329.487 18.232C329.647 18.392 329.727 18.536 329.727 18.664V19.72C329.663 21 329.631 22.568 329.631 24.424V33.112C329.631 34.392 329.807 35.272 330.159 35.752C330.543 36.2 331.231 36.424 332.223 36.424C332.319 36.424 332.367 36.52 332.367 36.712C332.367 36.904 332.319 37 332.223 37C331.391 37 330.735 36.984 330.255 36.952L327.375 36.904L324.543 36.952C324.063 36.984 323.407 37 322.575 37Z" fill="#404040"/>
<path d="M347.664 17.992C348.4 17.992 349.104 18.264 349.776 18.808C350.48 19.32 350.832 19.944 350.832 20.68C350.832 21.352 350.624 21.912 350.208 22.36C349.792 22.776 349.248 22.984 348.576 22.984C348.096 22.984 347.696 22.888 347.376 22.696C347.088 22.504 346.784 22.216 346.464 21.832C346.176 21.512 345.92 21.288 345.696 21.16C345.504 21 345.264 20.92 344.976 20.92C344.656 20.92 344.304 21.048 343.92 21.304C343.568 21.528 343.008 22.024 342.24 22.792V33.112C342.24 34.392 342.544 35.272 343.152 35.752C343.76 36.2 344.88 36.424 346.512 36.424C346.64 36.424 346.704 36.52 346.704 36.712C346.704 36.904 346.64 37 346.512 37C345.392 37 344.512 36.984 343.872 36.952L339.984 36.904L337.152 36.952C336.672 36.984 336.016 37 335.184 37C335.088 37 335.04 36.904 335.04 36.712C335.04 36.52 335.088 36.424 335.184 36.424C336.176 36.424 336.848 36.2 337.2 35.752C337.552 35.272 337.728 34.392 337.728 33.112V24.088C337.728 23.096 337.6 22.376 337.344 21.928C337.12 21.448 336.752 21.208 336.24 21.208C335.696 21.208 334.928 21.432 333.936 21.88H333.84C333.744 21.88 333.664 21.8 333.6 21.64C333.568 21.48 333.584 21.384 333.648 21.352L340.32 18.088C340.512 18.024 340.624 17.992 340.656 17.992C341.008 17.992 341.328 18.328 341.616 19C341.936 19.64 342.128 20.52 342.192 21.64C343.504 20.296 344.576 19.352 345.408 18.808C346.272 18.264 347.024 17.992 347.664 17.992Z" fill="#404040"/>
<path d="M374.217 33.88C374.313 33.88 374.393 33.96 374.457 34.12C374.553 34.28 374.553 34.376 374.457 34.408L367.833 37.624C367.769 37.656 367.689 37.672 367.593 37.672C367.305 37.672 367.033 37.384 366.777 36.808C366.553 36.232 366.409 35.448 366.345 34.456C365.289 35.448 364.233 36.232 363.177 36.808C362.121 37.352 360.953 37.624 359.673 37.624C358.361 37.624 357.145 37.304 356.025 36.664C354.937 35.992 354.073 35.016 353.433 33.736C352.793 32.456 352.473 30.92 352.473 29.128C352.473 26.856 353.001 24.872 354.057 23.176C355.113 21.448 356.505 20.136 358.233 19.24C359.961 18.344 361.817 17.896 363.801 17.896C365.529 17.896 367.081 18.312 368.457 19.144C369.193 18.824 369.817 18.408 370.329 17.896C370.361 17.864 370.409 17.848 370.473 17.848C370.537 17.848 370.601 17.88 370.665 17.944C370.761 17.976 370.809 18.024 370.809 18.088V31.768C370.809 32.728 370.905 33.416 371.097 33.832C371.321 34.216 371.673 34.408 372.153 34.408C372.569 34.408 373.225 34.232 374.121 33.88H374.217ZM362.121 35.08C363.401 35.08 364.793 34.568 366.297 33.544V23.176C366.297 21.928 365.945 20.904 365.241 20.104C364.569 19.304 363.673 18.904 362.553 18.904C360.953 18.904 359.689 19.704 358.761 21.304C357.865 22.904 357.417 24.968 357.417 27.496C357.417 29.896 357.817 31.768 358.617 33.112C359.449 34.424 360.617 35.08 362.121 35.08Z" fill="#404040"/>
</svg>
